<?xml version="1.0" encoding="utf-8"?>
<!-- Generator: Adobe Illustrator 19.2.1, SVG Export Plug-In . SVG Version: 6.00 Build 0)  -->
<svg version="1.1" id="Layer_1" xmlns="http://www.w3.org/2000/svg" xmlns:xlink="http://www.w3.org/1999/xlink" x="0px" y="0px"
	 viewBox="0 0 574.618 92" enable-background="new 0 0 574.618 92" xml:space="preserve">
<g id="Layer_1_1_">
</g>
<g id="Dark_on_Light">
	<g id="TARA_Logo_1_">
		<g id="logotype_1_">
			<path id="a_2_" fill="#FAFFFF" d="M516.383,17.839h17.393c0.969,0,1.878,0.468,2.441,1.256l38.213,53.484
				c0.473,0.662,0,1.581-0.814,1.581h-14.893c-0.98,0-1.898-0.479-2.459-1.282l-5.809-8.316c-0.561-0.803-1.479-1.282-2.459-1.282
				h-46.634c-0.98,0-1.898,0.479-2.459,1.282l-5.809,8.316c-0.561,0.803-1.479,1.282-2.459,1.282h-14.093
				c-0.813,0-1.287-0.919-0.814-1.581l38.214-53.484C514.505,18.307,515.414,17.839,516.383,17.839z M509.803,51.68h29.678
				c0.809,0,1.283-0.91,0.82-1.573l-14.804-21.178c-0.398-0.569-1.239-0.57-1.638-0.002l-14.874,21.178
				C508.519,50.768,508.993,51.68,509.803,51.68z"/>
			<path id="r_1_" fill="#FAFFFF" d="M443.591,74.161c-0.593,0-1.173-0.176-1.666-0.505l-24.692-16.485
				c-0.986-0.658-2.146-1.01-3.332-1.01h-16.182c-1.105,0-2,0.895-2,2v14c0,1.105-0.895,2-2,2h-11.92c-1.105,0-2-0.895-2-2V20.16
				c0-1.105,0.895-2,2-2H428.6c16.881,0,22.561,2,26.641,6.08c3.521,3.52,4.48,8.4,4.48,12.8c0,4.24-0.88,9.04-4.721,12.881
				c-2.862,2.863-6.75,4.83-14.414,5.728c-0.93,0.109-1.205,1.331-0.416,1.834l22.955,14.631c0.839,0.535,0.468,1.833-0.527,1.843
				L443.591,74.161z M428.361,31.04h-30.642c-1.105,0-2,0.895-2,2v9.36c0,1.105,0.895,2,2,2h30.642c7.359,0,11.68-0.56,13.76-2.64
				c1.04-1.04,1.601-2.641,1.601-4.24c0-1.84-0.48-3.2-1.681-4.4C440.281,31.36,436.521,31.04,428.361,31.04z"/>
			<path id="a_3_" fill="#FAFFFF" d="M305.824,17.839h17.393c0.969,0,1.878,0.468,2.441,1.256l38.213,53.484
				c0.473,0.662,0,1.581-0.814,1.581h-14.893c-0.98,0-1.898-0.479-2.459-1.282l-5.809-8.316c-0.561-0.803-1.479-1.282-2.459-1.282
				h-46.634c-0.98,0-1.898,0.479-2.459,1.282l-5.809,8.316c-0.561,0.803-1.479,1.282-2.459,1.282h-14.093
				c-0.813,0-1.287-0.919-0.814-1.581l38.214-53.484C303.947,18.307,304.856,17.839,305.824,17.839z M299.244,51.68h29.678
				c0.809,0,1.283-0.91,0.82-1.573l-14.804-21.178c-0.397-0.569-1.239-0.57-1.638-0.002l-14.874,21.178
				C297.961,50.768,298.435,51.68,299.244,51.68z"/>
			<path id="t_1_" fill="#FAFFFF" d="M263.443,30.799h-30.441c-1.657,0-3,1.343-3,3V72.16c0,1.105-0.895,2-2,2h-11.92
				c-1.105,0-2-0.895-2-2V33.799c0-1.657-1.343-3-3-3h-30.601c-1.105,0-2-0.895-2-2v-8.64c0-1.105,0.895-2,2-2h82.962
				c1.105,0,2,0.895,2,2v8.64C265.443,29.904,264.548,30.799,263.443,30.799z"/>
		</g>
		<g id="mark_1_">
			<g>
				<path fill="#FAFFFF" d="M79.5,76c-1.572,0-3.135-0.018-4.692-0.045c0.815,4.05,1.566,8.915,2.214,14.276
					C77.143,91.237,77.993,92,79.007,92h0.986c1.013,0,1.863-0.763,1.985-1.769c0.648-5.361,1.399-10.226,2.214-14.276
					C82.635,75.982,81.072,76,79.5,76z"/>
			</g>
			<path fill="#FAFFFF" d="M92.276,21.677c0.031,0.092,0.062,0.18,0.092,0.264c0.158,0.444,0.48,0.803,0.889,1.039
				c2.032,1.173,3.871,2.603,5.496,4.229c0.34,0.34,0.788,0.555,1.268,0.595C123.873,29.773,141,35.16,141,41.5
				c0,8.008-27.311,14.5-61,14.5s-61-6.492-61-14.5c0-6.341,17.133-11.728,40.989-13.697c0.473-0.039,0.915-0.251,1.25-0.587
				c1.627-1.629,3.469-3.061,5.504-4.236c0.409-0.236,0.73-0.595,0.889-1.039c0.03-0.085,0.061-0.173,0.092-0.264
				c0.228-0.669-0.298-1.368-1.004-1.331C28.859,22.323,0,32.607,0,45c0,13.807,35.817,25,80,25s80-11.193,80-25
				c0-12.393-28.859-22.677-66.72-24.655C92.574,20.309,92.048,21.008,92.276,21.677z"/>
			<g>
				<path fill="#FAFFFF" d="M59.183,49.151C65.633,49.707,72.506,50,79.5,50c6.995,0,13.867-0.293,20.317-0.849
					c0.164-1.027,0.262-2.076,0.262-3.151c0-8.341-4.972-15.507-12.105-18.739c-2.268-2.268-4.425-12.504-5.995-25.494
					C81.857,0.761,81.006,0,79.993,0h-0.985c-1.014,0-1.864,0.761-1.986,1.768c-1.57,12.99-3.727,23.225-5.995,25.494
					C63.893,30.493,58.921,37.659,58.921,46C58.921,47.074,59.019,48.123,59.183,49.151z"/>
			</g>
		</g>
	</g>
</g>
</svg>
